<svg width="100" height="100" viewBox="0 0 100 100" fill="none" xmlns="http://www.w3.org/2000/svg">
<rect width="100" height="100" rx="16" fill="#F2785C"/>
<path d="M35.4167 68.7548C33.4828 68.7548 31.6281 67.957 30.2607 66.537C28.8932 65.1169 28.125 63.1909 28.125 61.1827C28.125 59.1744 28.8932 57.2484 30.2607 55.8284C31.6281 54.4084 33.4828 53.6106 35.4167 53.6106C37.3505 53.6106 39.2052 54.4084 40.5727 55.8284C41.9401 57.2484 42.7083 59.1744 42.7083 61.1827C42.7083 63.1909 41.9401 65.1169 40.5727 66.537C39.2052 67.957 37.3505 68.7548 35.4167 68.7548ZM35.4167 50.3654C32.654 50.3654 30.0045 51.5051 28.051 53.5337C26.0975 55.5623 25 58.3138 25 61.1827C25 64.0516 26.0975 66.803 28.051 68.8317C30.0045 70.8603 32.654 72 35.4167 72C38.1793 72 40.8289 70.8603 42.7824 68.8317C44.7359 66.803 45.8333 64.0516 45.8333 61.1827C45.8333 58.3138 44.7359 55.5623 42.7824 53.5337C40.8289 51.5051 38.1793 50.3654 35.4167 50.3654ZM55.8333 46.0385H64.5833V42.1442H57.9167L53.875 35.0697C53.2708 33.988 52.0833 33.274 50.8333 33.274C49.8542 33.274 48.9583 33.6851 48.3333 34.3558L40.625 42.3389C39.9792 43.0096 39.5833 43.875 39.5833 44.9567C39.5833 46.3197 40.2708 47.4663 41.3542 48.137L48.3333 52.5288V63.3462H52.0833V49.2837L47.3958 45.7139L52.2292 40.6298L55.8333 46.0385ZM64.5833 68.7548C62.6495 68.7548 60.7948 67.957 59.4273 66.537C58.0599 65.1169 57.2917 63.1909 57.2917 61.1827C57.2917 59.1744 58.0599 57.2484 59.4273 55.8284C60.7948 54.4084 62.6495 53.6106 64.5833 53.6106C66.5172 53.6106 68.3719 54.4084 69.7393 55.8284C71.1068 57.2484 71.875 59.1744 71.875 61.1827C71.875 63.1909 71.1068 65.1169 69.7393 66.537C68.3719 67.957 66.5172 68.7548 64.5833 68.7548ZM64.5833 50.3654C61.8207 50.3654 59.1711 51.5051 57.2176 53.5337C55.2641 55.5623 54.1667 58.3138 54.1667 61.1827C54.1667 64.0516 55.2641 66.803 57.2176 68.8317C59.1711 70.8603 61.8207 72 64.5833 72C65.9513 72 67.3058 71.7202 68.5696 71.1766C69.8334 70.633 70.9818 69.8362 71.949 68.8317C72.9163 67.8272 73.6836 66.6347 74.2071 65.3223C74.7306 64.0099 75 62.6032 75 61.1827C75 59.7621 74.7306 58.3555 74.2071 57.0431C73.6836 55.7307 72.9163 54.5382 71.949 53.5337C70.9818 52.5292 69.8334 51.7324 68.5696 51.1888C67.3058 50.6452 65.9513 50.3654 64.5833 50.3654ZM58.3333 34.7885C60.4167 34.7885 62.0833 33.0577 62.0833 30.8942C62.0833 28.7308 60.4167 27 58.3333 27C56.25 27 54.5833 28.7308 54.5833 30.8942C54.5833 33.0577 56.25 34.7885 58.3333 34.7885Z" fill="white"/>
</svg>
